# xmcd
# Track frame offsets:
# 150
# 11663
# 23263
# 35913
# 49000
# 60825
# 80675
# 92313
# 107388
# 119013
# 133820
# 145600
# 161638
# 172825
# 182438
# 196925
# 211313
# 219963
# 238483
# 252425
# 265575
# 276225
# 287200
# 302575
#
# Disc length: 4169 seconds
# Revision: 1
# Processed by: cddbd v1.5.2PL0 Copyright (c) Steve Scherf et al.
# Submitted via: VisiTrax 2.10.0.248 - For more info visit www.synapsa.com
#
DISCID=49104718
DTITLE=Marty Robbins - Golden Memories (1972)
DYEAR=1972
DGENRE=Country
TTITLE0=A White Sport Coat (And A Pink Carnation)
TTITLE1=Story Of My Life, The
TTITLE2=I'm So Lonesome I Could Cry
TTITLE3=Devil Woman
TTITLE4=Begging To You
TTITLE5=El Paso
TTITLE6=Are You Sincere
TTITLE7=I walk Alone
TTITLE8=My Happiness
TTITLE9=Don't Worry
TTITLE10=Ribbon Of Darkness
TTITLE11=My Woman, My Woman, My Wife
TTITLE12=Singing The Blues
TTITLE13=Half As Much
TTITLE14=Cool Water
TTITLE15=Have I Told You Lately That I Love You
TTITLE16=To Each His Own
TTITLE17=Good Hearted Woman
TTITLE18=Love Me Tender
TTITLE19=Return To Me
TTITLE20=Unchained Melody
TTITLE21=I Don't Know Why, I Just Do
TTITLE22=Misty
TTITLE23=Can't Help Falling In Love (With You)
EXTD=YEAR: 1972
EXTT0=
EXTT1=
EXTT2=
EXTT3=
EXTT4=
EXTT5=
EXTT6=
EXTT7=
EXTT8=
EXTT9=
EXTT10=
EXTT11=
EXTT12=
EXTT13=
EXTT14=
EXTT15=
EXTT16=
EXTT17=
EXTT18=
EXTT19=
EXTT20=
EXTT21=
EXTT22=
EXTT23=
PLAYORDER=
